<svg width="134" height="26" viewBox="0 0 1343 262" fill="none" xmlns="http://www.w3.org/2000/svg"><path d="M1265.59 231.946V257.718H1136.73V231.946H1110.96V154.631H1136.73V128.859H1162.5V25.7718H1188.27V0H1214.04V25.7718H1188.27V77.3155H1239.82V103.087H1214.04V128.859H1239.82V154.631H1265.59V180.403H1291.36V206.175H1317.13V231.946H1342.9V257.718H1291.36V231.946H1265.59ZM1239.82 51.5437V0H1265.59V51.5437H1239.82ZM1342.9 128.859H1317.13V103.087H1342.9V128.859ZM1265.59 231.946V206.175H1239.82V180.403H1214.04V154.631H1188.27V128.859H1162.5V154.631H1136.73V180.403H1162.5V231.946H1265.59ZM1317.13 154.631V180.403H1291.36V154.631H1317.13Z" fill="currentColor"/><path d="M989.584 257.718V109.224H971.789V73.6339H1008.61V107.996H1021.49C1026.61 96.7467 1034.48 87.9516 1045.12 81.6109C1055.96 75.2702 1068.64 72.0999 1083.16 72.0999H1098.19V101.553H1081.32C1062.91 101.553 1048.7 106.974 1038.67 117.814C1028.65 128.655 1023.64 143.279 1023.64 161.688V257.718H989.584Z" fill="currentColor"/><path d="M864.494 261.4C845.268 261.4 828.598 257.514 814.485 249.741C800.372 241.764 789.429 230.515 781.657 215.993C774.089 201.47 770.305 184.494 770.305 165.063C770.305 145.632 774.089 128.859 781.657 114.746C789.429 100.429 800.269 89.3835 814.178 81.6111C828.087 73.8386 844.347 69.9524 862.96 69.9524C880.755 69.9524 896.096 73.5318 908.982 80.6906C922.072 87.8495 932.197 97.9741 939.355 111.065C946.514 124.155 950.094 139.7 950.094 157.699V171.506H803.44C804.463 190.732 810.292 205.766 820.928 216.606C831.768 227.242 846.188 232.56 864.188 232.56C876.664 232.56 887.198 230.004 895.789 224.89C904.379 219.572 910.311 211.8 913.584 201.573H948.56C944.06 220.595 934.344 235.322 919.413 245.753C904.686 256.184 886.38 261.4 864.494 261.4ZM804.667 146.347H916.959C915.322 131.212 909.697 119.451 900.084 111.065C890.675 102.679 878.199 98.4855 862.654 98.4855C847.313 98.4855 834.53 102.679 824.303 111.065C814.076 119.451 807.531 131.212 804.667 146.347Z" fill="currentColor"/><path d="M639.098 261.4C620.69 261.4 604.94 257.514 591.85 249.741C578.964 241.969 569.044 230.924 562.089 216.606C555.34 202.288 551.965 185.312 551.965 165.676C551.965 146.04 555.34 129.064 562.089 114.746C568.839 100.428 578.453 89.3833 590.929 81.6109C603.611 73.8384 618.644 69.9522 636.03 69.9522C650.757 69.9522 663.438 72.8157 674.074 78.5428C684.915 84.2699 693.096 92.5537 698.619 103.394H699.846V0.00012207H734.208V222.129H752.003V257.718H715.186V229.492H702.3C696.164 239.923 687.778 247.9 677.142 253.423C666.506 258.741 653.825 261.4 639.098 261.4ZM644.314 231.946C661.086 231.946 674.483 227.14 684.506 217.527C694.733 207.913 699.846 195.13 699.846 179.176V152.177C699.846 136.223 694.733 123.439 684.506 113.826C674.483 104.212 661.086 99.4057 644.314 99.4057C625.905 99.4057 611.588 105.235 601.361 116.894C591.338 128.552 586.327 144.813 586.327 165.676C586.327 186.539 591.338 202.8 601.361 214.458C611.588 226.117 625.905 231.946 644.314 231.946Z" fill="currentColor"/><path d="M451.483 261.4C434.711 261.4 419.575 258.025 406.076 251.276C392.576 244.526 382.042 235.322 374.475 223.663H372.941C356.782 248.617 331.215 261.093 296.239 261.093C282.535 261.093 270.467 258.639 260.035 253.73C249.808 248.821 241.729 242.071 235.798 233.481C230.071 224.89 227.207 214.868 227.207 203.414C227.207 185.414 233.548 171.403 246.229 161.381C258.91 151.359 276.705 146.347 299.614 146.347H358.827V141.132C358.827 127.632 354.634 117.201 346.248 109.837C337.862 102.269 325.999 98.4855 310.659 98.4855C298.591 98.4855 288.671 100.94 280.898 105.849C273.33 110.758 268.319 117.917 265.865 127.325H231.196C234.264 109.531 242.956 95.5197 257.274 85.2927C271.796 75.0658 289.898 69.9524 311.579 69.9524C327.533 69.9524 341.339 72.7137 352.998 78.2362C364.657 83.5542 373.452 91.5312 379.383 102.167H380.611C388.792 91.9402 398.815 84.0655 410.678 78.543C422.541 72.8159 435.529 69.9524 449.642 69.9524C466.414 69.9524 481.039 73.6341 493.516 80.9974C506.197 88.3608 516.117 98.5877 523.276 111.678C530.639 124.564 534.321 139.598 534.321 156.779V171.506H390.429C391.451 190.119 397.485 204.948 408.53 215.993C419.575 227.038 433.791 232.56 451.176 232.56C462.835 232.56 473.062 229.799 481.857 224.276C490.652 218.549 496.584 210.981 499.652 201.573H533.708C530.844 213.64 525.526 224.174 517.754 233.174C509.981 242.174 500.47 249.128 489.22 254.037C477.971 258.946 465.392 261.4 451.483 261.4ZM299.307 233.481C316.693 233.481 330.908 228.776 341.953 219.368C353.203 209.959 358.827 197.789 358.827 182.857V171.506H299C286.523 171.506 276.808 174.165 269.853 179.483C263.103 184.801 259.729 192.266 259.729 201.88C259.729 211.288 263.41 218.958 270.774 224.89C278.137 230.617 287.648 233.481 299.307 233.481ZM392.269 146.347H502.106C500.675 131.621 495.152 119.962 485.539 111.371C475.926 102.781 463.755 98.4855 449.029 98.4855C434.507 98.4855 422.132 102.781 411.905 111.371C401.883 119.962 395.337 131.621 392.269 146.347Z" fill="currentColor"/><path d="M0 257.718V9.20435H119.348C144.506 9.20435 164.346 15.136 178.869 26.9992C193.391 38.8624 200.652 55.6345 200.652 77.3156C200.652 88.5652 198.095 98.6898 192.982 107.689C188.073 116.485 180.403 123.746 169.971 129.473V130.7C179.789 130.7 187.357 133.359 192.675 138.677C197.993 143.79 200.652 151.154 200.652 160.767V257.718H165.676V155.858H35.2828V257.718H0ZM35.2828 126.712H115.973C131.723 126.712 143.995 122.928 152.79 115.36C161.585 107.587 165.983 96.7467 165.983 82.8381C165.983 68.725 161.585 57.8844 152.79 50.3165C143.995 42.7486 131.723 38.9647 115.973 38.9647H35.2828V126.712Z" fill="currentColor"/></svg>